<?xml version="1.0" encoding="UTF-8" standalone="no"?>
<!DOCTYPE svg PUBLIC "-//W3C//DTD SVG 1.1//EN" "http://www.w3.org/Graphics/SVG/1.1/DTD/svg11.dtd">
<svg width="100%" height="100%" viewBox="0 0 2363 2363" version="1.1" xmlns="http://www.w3.org/2000/svg" xmlns:xlink="http://www.w3.org/1999/xlink" xml:space="preserve" xmlns:serif="http://www.serif.com/" style="fill-rule:evenodd;clip-rule:evenodd;stroke-linecap:round;stroke-linejoin:round;stroke-miterlimit:1.5;">
    <g transform="matrix(1,0,0,1,-2362.2,0)">
        <g id="Hintergrund" transform="matrix(1.91758,0,0,1.70561,-1736.88,-456.022)">
            <ellipse cx="2753.56" cy="959.847" rx="554.34" ry="623.233" style="fill:rgb(153,0,0);stroke:white;stroke-width:10.33px;"/>
        </g>
        <g transform="matrix(1,0,0,1,1935.98,-511.27)">
            <g transform="matrix(0.853526,0.52105,-0.52105,0.853526,1463.33,-155.093)">
                <text x="1007.52px" y="2525.2px" style="font-family:'LinBiolinumCapitals', 'Linux Biolinum Capitals';font-size:208.333px;fill:white;">U</text>
            </g>
            <g transform="matrix(0.91062,0.413245,-0.413245,0.91062,1174.82,-234.402)">
                <text x="1129.29px" y="2598.67px" style="font-family:'LinBiolinumCapitals', 'Linux Biolinum Capitals';font-size:208.333px;fill:white;">n</text>
            </g>
            <g transform="matrix(0.940262,0.340451,-0.340451,0.940262,973.631,-261.289)">
                <text x="1231.37px" y="2643.76px" style="font-family:'LinBiolinumCapitals', 'Linux Biolinum Capitals';font-size:208.333px;fill:white;">i</text>
            </g>
            <g transform="matrix(0.979813,0.199918,-0.199918,0.979813,562.157,-210.997)">
                <text x="1325.84px" y="2678.05px" style="font-family:'LinBiolinumCapitals', 'Linux Biolinum Capitals';font-size:208.333px;fill:white;">H</text>
            </g>
            <g transform="matrix(0.996674,0.0814896,-0.0814896,0.996674,225.448,-110.984)">
                <text x="1472.4px" y="2706.49px" style="font-family:'LinBiolinumCapitals', 'Linux Biolinum Capitals';font-size:208.333px;fill:white;">e</text>
            </g>
            <g transform="matrix(0.99992,0.0126842,-0.0126842,0.99992,34.5461,-19.6698)">
                <text x="1567.94px" y="2713.61px" style="font-family:'LinBiolinumCapitals', 'Linux Biolinum Capitals';font-size:208.333px;fill:white;">i</text>
            </g>
            <g transform="matrix(0.997653,-0.0684744,0.0684744,0.997653,-182.162,117.173)">
                <text x="1618.11px" y="2715.75px" style="font-family:'LinBiolinumCapitals', 'Linux Biolinum Capitals';font-size:208.333px;fill:white;">d</text>
            </g>
            <g transform="matrix(0.985604,-0.169073,0.169073,0.985604,-432.814,332.123)">
                <text x="1733.83px" y="2707.56px" style="font-family:'LinBiolinumCapitals', 'Linux Biolinum Capitals';font-size:208.333px;fill:white;">e</text>
            </g>
            <g transform="matrix(0.965622,-0.259951,0.259951,0.965622,-636.813,567.799)">
                <text x="1828.31px" y="2691.54px" style="font-family:'LinBiolinumCapitals', 'Linux Biolinum Capitals';font-size:208.333px;fill:white;">l</text>
            </g>
            <g transform="matrix(0.938412,-0.345517,0.345517,0.938412,-804.403,825.622)">
                <text x="1913.74px" y="2669.23px" style="font-family:'LinBiolinumCapitals', 'Linux Biolinum Capitals';font-size:208.333px;fill:white;">b</text>
            </g>
            <g transform="matrix(0.901262,-0.433275,0.433275,0.901262,-942.941,1130.63)">
                <text x="2009.18px" y="2634.18px" style="font-family:'LinBiolinumCapitals', 'Linux Biolinum Capitals';font-size:208.333px;fill:white;">e</text>
            </g>
            <g transform="matrix(0.854506,-0.519441,0.519441,0.854506,-1042.02,1465.9)">
                <text x="2095.76px" y="2593.06px" style="font-family:'LinBiolinumCapitals', 'Linux Biolinum Capitals';font-size:208.333px;fill:white;">r</text>
            </g>
            <g transform="matrix(0.80365,-0.595102,0.595102,0.80365,-1087.07,1794.96)">
                <text x="2176.57px" y="2544.85px" style="font-family:'LinBiolinumCapitals', 'Linux Biolinum Capitals';font-size:208.333px;fill:white;">g</text>
            </g>
        </g>
        <g transform="matrix(1,0,0,1,2319.37,-50.3635)">
            <g transform="matrix(0.340089,-0.940393,0.940393,0.340089,-682.696,999.146)">
                <text x="370.559px" y="986.004px" style="font-family:'LinBiolinumCapitals', 'Linux Biolinum Capitals';font-size:208.333px;fill:white;">F</text>
            </g>
            <g transform="matrix(0.440464,-0.89777,0.89777,0.440464,-571.069,861.14)">
                <text x="405.311px" y="888.707px" style="font-family:'LinBiolinumCapitals', 'Linux Biolinum Capitals';font-size:208.333px;fill:white;">a</text>
            </g>
            <g transform="matrix(0.541451,-0.840733,0.840733,0.541451,-463.711,743.918)">
                <text x="450.117px" y="797.057px" style="font-family:'LinBiolinumCapitals', 'Linux Biolinum Capitals';font-size:208.333px;fill:white;">c</text>
            </g>
            <g transform="matrix(0.64002,-0.768358,0.768358,0.64002,-363.489,644.085)">
                <text x="505.639px" y="709.967px" style="font-family:'LinBiolinumCapitals', 'Linux Biolinum Capitals';font-size:208.333px;fill:white;">h</text>
            </g>
            <g transform="matrix(0.719885,-0.694093,0.694093,0.719885,-269.329,576.81)">
                <text x="579.971px" y="622.089px" style="font-family:'LinBiolinumCapitals', 'Linux Biolinum Capitals';font-size:208.333px;fill:white;">s</text>
            </g>
            <g transform="matrix(0.787119,-0.616802,0.616802,0.787119,-213.777,513.314)">
                <text x="636.748px" y="566.355px" style="font-family:'LinBiolinumCapitals', 'Linux Biolinum Capitals';font-size:208.333px;fill:white;">c</text>
            </g>
            <g transform="matrix(0.856458,-0.516217,0.516217,0.856458,-156.347,442.529)">
                <text x="717.554px" y="502.398px" style="font-family:'LinBiolinumCapitals', 'Linux Biolinum Capitals';font-size:208.333px;fill:white;">h</text>
            </g>
            <g transform="matrix(0.913283,-0.407325,0.407325,0.913283,-109.704,370.986)">
                <text x="816.444px" y="443.143px" style="font-family:'LinBiolinumCapitals', 'Linux Biolinum Capitals';font-size:208.333px;fill:white;">a</text>
            </g>
            <g transform="matrix(0.953176,-0.302415,0.302415,0.953176,-78.8944,293.858)">
                <text x="909.506px" y="401.702px" style="font-family:'LinBiolinumCapitals', 'Linux Biolinum Capitals';font-size:208.333px;fill:white;">f</text>
            </g>
            <g transform="matrix(0.978541,-0.206054,0.206054,0.978541,-55.7845,213.003)">
                <text x="994.744px" y="374.325px" style="font-family:'LinBiolinumCapitals', 'Linux Biolinum Capitals';font-size:208.333px;fill:white;">t</text>
            </g>
            <g transform="matrix(0.999997,0.0023785,-0.0023785,0.999997,0.824799,-2.69703)">
                <text x="1134.33px" y="345.423px" style="font-family:'LinBiolinumCapitals', 'Linux Biolinum Capitals';font-size:208.333px;fill:white;">M</text>
            </g>
            <g transform="matrix(0.986839,0.161708,-0.161708,0.986839,73.7563,-208.349)">
                <text x="1316.83px" y="348.931px" style="font-family:'LinBiolinumCapitals', 'Linux Biolinum Capitals';font-size:208.333px;fill:white;">a</text>
            </g>
            <g transform="matrix(0.962944,0.269702,-0.269702,0.962944,151.153,-368.817)">
                <text x="1417.74px" y="365.651px" style="font-family:'LinBiolinumCapitals', 'Linux Biolinum Capitals';font-size:208.333px;fill:white;">t</text>
            </g>
            <g transform="matrix(0.924741,0.380597,-0.380597,0.924741,261.685,-544.03)">
                <text x="1506.47px" y="389.678px" style="font-family:'LinBiolinumCapitals', 'Linux Biolinum Capitals';font-size:208.333px;fill:white;">h</text>
            </g>
            <g transform="matrix(0.864148,0.503238,-0.503238,0.864148,437.243,-753.146)">
                <text x="1613.56px" y="433.268px" style="font-family:'LinBiolinumCapitals', 'Linux Biolinum Capitals';font-size:208.333px;fill:white;">P</text>
            </g>
            <g transform="matrix(0.794435,0.607349,-0.607349,0.794435,651.225,-940.379)">
                <text x="1714.8px" y="491.843px" style="font-family:'LinBiolinumCapitals', 'Linux Biolinum Capitals';font-size:208.333px;fill:white;">h</text>
            </g>
            <g transform="matrix(0.718851,0.695165,-0.695165,0.718851,898.725,-1097.41)">
                <text x="1806.08px" y="562.381px" style="font-family:'LinBiolinumCapitals', 'Linux Biolinum Capitals';font-size:208.333px;fill:white;">y</text>
            </g>
            <g transform="matrix(0.649424,0.760426,-0.760426,0.649424,1131.83,-1203.63)">
                <text x="1871.3px" y="625.698px" style="font-family:'LinBiolinumCapitals', 'Linux Biolinum Capitals';font-size:208.333px;fill:white;">s</text>
            </g>
            <g transform="matrix(0.588467,0.808521,-0.808521,0.588467,1345.98,-1272.04)">
                <text x="1922.55px" y="686.179px" style="font-family:'LinBiolinumCapitals', 'Linux Biolinum Capitals';font-size:208.333px;fill:white;">I</text>
            </g>
            <g transform="matrix(0.507796,0.861477,-0.861477,0.507796,1596.04,-1326.33)">
                <text x="1958.72px" y="733.566px" style="font-family:'LinBiolinumCapitals', 'Linux Biolinum Capitals';font-size:208.333px;fill:white;">n</text>
            </g>
            <g transform="matrix(0.403833,0.914833,-0.914833,0.403833,1960.34,-1348.76)">
                <text x="2015.02px" y="829.715px" style="font-family:'LinBiolinumCapitals', 'Linux Biolinum Capitals';font-size:208.333px;fill:white;">f</text>
            </g>
            <g transform="matrix(0.297612,0.954687,-0.954687,0.297612,2311.29,-1319.16)">
                <text x="2052.14px" y="911.178px" style="font-family:'LinBiolinumCapitals', 'Linux Biolinum Capitals';font-size:208.333px;fill:white;">o</text>
            </g>
        </g>
        <g transform="matrix(1.23227,0,0,1.23227,1431.42,-426.124)">
            <text x="1108.46px" y="1434.93px" style="font-family:'LinBiolinumCapitals', 'Linux Biolinum Capitals';font-size:822.407px;fill:white;">μφι</text>
        </g>
        <g transform="matrix(1.38016,0,0,1.67579,836.58,-1166.97)">
            <ellipse cx="1961.16" cy="1401.17" rx="611.875" ry="503.933" style="fill:none;stroke:white;stroke-width:11.67px;"/>
        </g>
    </g>
</svg>
